<?xml version="1.0" encoding="UTF-8" standalone="no"?>
<svg
   width="40"
   height="40"
   viewBox="0 0 40 40"
   version="1.1"
   id="svg1"
   sodipodi:docname="meandr-v0.4.0.svg"
   inkscape:version="1.4.2 (unknown)"
   xmlns:inkscape="http://www.inkscape.org/namespaces/inkscape"
   xmlns:sodipodi="http://sodipodi.sourceforge.net/DTD/sodipodi-0.dtd"
   xmlns="http://www.w3.org/2000/svg"
   xmlns:svg="http://www.w3.org/2000/svg">
  <defs
     id="defs1" />
  <sodipodi:namedview
     id="namedview1"
     pagecolor="#ffffff"
     bordercolor="#000000"
     borderopacity="0.25"
     inkscape:showpageshadow="2"
     inkscape:pageopacity="0.0"
     inkscape:pagecheckerboard="0"
     inkscape:deskcolor="#d1d1d1"
     showgrid="false"
     inkscape:zoom="46.125"
     inkscape:cx="20"
     inkscape:cy="20"
     inkscape:window-width="3840"
     inkscape:window-height="2082"
     inkscape:window-x="3840"
     inkscape:window-y="41"
     inkscape:window-maximized="1"
     inkscape:current-layer="g0" />
  <g
     id="g1">
    <g
       transform="translate(20,20)"
       id="g0">
      <path
         style="baseline-shift:baseline;display:inline;overflow:visible;vector-effect:none;fill:#0000ff;enable-background:accumulate;stop-color:#000000;stop-opacity:1;opacity:1"
         d="m -0.19921875,-17.011719 v 2.921875 l -1.07421875,0.05664 -0.3066406,-2.90625 -2.1523438,0.341797 0.6074219,2.857422 -1.0390625,0.277343 -0.9023437,-2.777343 -2.0351563,0.78125 1.1875,2.667968 -0.9570312,0.488282 -1.4609376,-2.529297 -1.8281247,1.1875 1.7167966,2.363281 -0.8359375,0.675781 -1.9550781,-2.169922 -1.541016,1.541016 2.169922,1.9550781 -0.675781,0.8359375 -2.363281,-1.7167966 -1.1875,1.8281247 2.529297,1.4609376 -0.488282,0.9570312 -2.667968,-1.1875 -0.78125,2.0351563 2.777343,0.9023437 -0.277343,1.0390625 -2.857422,-0.6074219 -0.341797,2.1523438 2.90625,0.3066406 -0.05664,1.07421875 h -2.921875 l 0.115235,2.17578125 2.904296,-0.3046875 0.167969,1.0625 -2.855468,0.6074219 0.5625,2.1054687 2.779296,-0.9023437 0.384766,1.0039062 -2.667969,1.1875 0.990235,1.9414063 2.529296,-1.4589844 0.585938,0.9003906 -2.363281,1.7167969 1.371093,1.6953125 2.169922,-1.9550781 0.7617191,0.7617191 -1.9550781,2.169922 1.6953125,1.371093 1.7167969,-2.363281 0.9003906,0.585938 -1.4589844,2.529296 1.9414063,0.990235 1.1875,-2.667969 1.0039062,0.384766 -0.9023437,2.779296 2.1054687,0.5625 0.6074219,-2.855468 1.0625,0.167969 -0.3046875,2.904296 2.17578125,0.115235 V 14.089844 L 1.2734375,14.033203 1.5800781,16.939453 3.7324219,16.597656 3.125,13.740234 l 1.0390625,-0.277343 0.9023437,2.777343 2.0351563,-0.78125 -1.1875,-2.667968 0.9570312,-0.488282 1.4609376,2.529297 1.8281247,-1.1875 -1.7167966,-2.363281 0.8359375,-0.675781 1.9550781,2.169922 1.541016,-1.541016 -2.169922,-1.9550781 0.675781,-0.8359375 2.363281,1.7167966 1.1875,-1.8281247 -2.529297,-1.4609376 0.488282,-0.9570312 2.667968,1.1875 0.78125,-2.0351563 L 13.462891,4.1640625 13.740234,3.125 l 2.857422,0.6074219 0.341797,-2.1523438 -2.90625,-0.3066406 0.05664,-1.07421875 h 2.710937 v -0.3984375 H 13.710938 L 13.613281,1.6328125 16.476562,1.9335937 16.269531,3.2539063 13.453125,2.6542969 12.976563,4.4277344 15.714844,5.3164062 15.236328,6.5644531 12.605469,5.3945312 11.773438,7.0273437 14.267578,8.4667969 13.539063,9.5898438 11.208984,7.8964844 10.054688,9.3222656 12.193359,11.25 11.25,12.193359 9.3222656,10.054688 l -1.4257812,1.154296 1.6933594,2.330079 -1.1230469,0.728515 -1.4394532,-2.49414 -1.6328125,0.832031 1.1699219,2.630859 -1.2480469,0.478516 -0.8886718,-2.738281 -1.7734375,0.476562 0.5996094,2.816406 -1.3203126,0.207031 -0.3007812,-2.863281 -1.83203125,0.09766 v 2.876953 l -1.33593745,-0.06836 0.3007812,-2.863281 -1.8125,-0.287109 -0.5996094,2.816406 -1.2910156,-0.345703 0.890625,-2.738281 -1.7128906,-0.658204 -1.1699219,2.63086 -1.1914063,-0.607422 1.4394532,-2.494141 -1.5390625,-0.998047 -1.6914063,2.328125 -1.0390626,-0.839843 1.9257814,-2.140625 -1.2968754,-1.2968754 -2.140625,1.9257814 -0.839843,-1.0390626 2.328125,-1.6914063 -0.998047,-1.5390625 -2.494141,1.4394532 -0.607422,-1.1914063 2.63086,-1.1699219 -0.658204,-1.7128906 -2.738281,0.890625 -0.345703,-1.2910156 2.816406,-0.5996094 -0.287109,-1.8125 -2.863281,0.3007812 -0.06836,-1.33593745 h 2.876953 l 0.09766,-1.83203125 -2.863281,-0.3007812 0.207031,-1.3203126 2.816406,0.5996094 0.476562,-1.7734375 -2.738281,-0.8886718 0.478516,-1.2480469 2.630859,1.1699219 0.832031,-1.6328125 -2.49414,-1.4394532 0.728515,-1.1230469 2.330079,1.6933594 1.154296,-1.4257812 -2.138671,-1.9277344 0.943359,-0.943359 1.9277344,2.138671 1.4257812,-1.154296 -1.6933594,-2.330079 1.1230469,-0.728515 1.4394532,2.49414 1.6328125,-0.832031 -1.1699219,-2.630859 1.2480469,-0.478516 0.8886718,2.738281 1.7734375,-0.476562 -0.5996094,-2.816406 1.3203126,-0.207031 0.3007812,2.863281 1.83203125,-0.09766 v -2.876953 l 1.33593745,0.06836 -0.3007812,2.863281 1.8125,0.287109 0.5996094,-2.816406 1.2910156,0.345703 -0.890625,2.738281 1.7128906,0.658204 1.1699219,-2.63086 1.1914063,0.607422 -1.4394532,2.494141 1.5390625,0.998047 1.6914063,-2.328125 1.0390626,0.839843 -1.9257814,2.140625 1.2968754,1.2968754 2.140625,-1.9257814 0.839843,1.0390626 -2.328125,1.6914063 0.998047,1.5390625 2.494141,-1.4394532 0.607422,1.1914063 -2.63086,1.1699219 0.658204,1.7128906 2.738281,-0.890625 0.345703,1.2910156 -2.816406,0.5996094 0.287109,1.8125 3.072266,-0.3222656 -0.04102,-0.3984375 -2.695312,0.2832031 -0.167969,-1.0625 2.855468,-0.6074219 -0.5625,-2.1054687 -2.779296,0.9023437 -0.384766,-1.0039062 2.667969,-1.1875 -0.990235,-1.9414063 -2.529296,1.4589844 -0.585938,-0.9003906 2.363281,-1.7167969 -1.371093,-1.6953125 -2.169922,1.9550781 -0.7617191,-0.7617191 1.9550781,-2.169922 -1.6953125,-1.371093 -1.7167969,2.363281 -0.9003906,-0.585938 1.4589844,-2.529296 -1.9414063,-0.990235 -1.1875,2.667969 -1.0039062,-0.384766 0.9023437,-2.779296 -2.1054687,-0.5625 -0.6074219,2.855468 -1.0625,-0.167969 0.3046875,-2.904296 z"
         id="path0" />
      <path
         style="baseline-shift:baseline;display:inline;overflow:visible;vector-effect:none;fill:#ff0000;enable-background:accumulate;stop-color:#000000;stop-opacity:1;opacity:1"
         d="m -0.19921875,-16.011719 v 1.421875 l -1.12695315,0.05859 -0.1484375,-1.412109 -2.0507812,0.324218 0.296875,1.390625 -1.0898438,0.291016 -0.4394531,-1.351563 -1.9375,0.744141 0.578125,1.296875 -1.0039062,0.513672 -0.7109375,-1.230469 -1.7402344,1.128906 0.8339843,1.150391 -0.875,0.708984 -0.9511717,-1.054687 -1.466797,1.466797 1.054687,0.9511717 -0.708984,0.875 -1.150391,-0.8339843 -1.128906,1.7402344 1.230469,0.7109375 -0.513672,1.0039062 -1.296875,-0.578125 -0.744141,1.9375 1.351563,0.4394531 -0.291016,1.0898438 -1.390625,-0.296875 -0.324218,2.0507812 1.412109,0.1484375 -0.05859,1.12695315 h -1.421875 l 0.109375,2.07226565 1.414063,-0.1484375 0.175781,1.1132812 -1.390625,0.2949219 0.537109,2.0058594 1.351563,-0.4394532 0.404297,1.0527344 -1.296875,0.578125 0.941406,1.8476563 1.230469,-0.7089844 0.613281,0.9453125 -1.148438,0.8359375 1.306641,1.611328 1.054688,-0.9511717 0.7988277,0.7988277 -0.9511717,1.054688 1.611328,1.306641 0.8359375,-1.148438 0.9453125,0.613281 -0.7089844,1.230469 1.8476563,0.941406 0.578125,-1.296875 1.0527344,0.404297 -0.4394532,1.351563 2.0058594,0.537109 0.2949219,-1.390625 1.1132812,0.175781 -0.1484375,1.414063 2.07226565,0.109375 v -1.421875 l 1.12695315,-0.05859 0.1484375,1.412109 2.0507812,-0.324218 -0.296875,-1.390625 1.0898438,-0.291016 0.4394531,1.351563 1.9375,-0.744141 -0.578125,-1.296875 1.0039062,-0.513672 0.7109375,1.230469 1.7402344,-1.128906 -0.8339843,-1.150391 0.875,-0.708984 0.9511717,1.054687 1.466797,-1.466797 -1.054687,-0.9511717 0.708984,-0.875 1.150391,0.8339843 1.128906,-1.7402344 -1.230469,-0.7109375 0.513672,-1.0039062 1.296875,0.578125 0.744141,-1.9375 -1.351563,-0.4394531 0.291016,-1.0898438 1.390625,0.296875 0.324218,-2.0507812 -1.412109,-0.1484375 0.05859,-1.12695315 h 1.210937 v -0.3984375 h -1.589843 l -0.09961,1.88281245 1.371094,0.1445313 -0.191406,1.21875 -1.34961,-0.2871094 -0.488281,1.8222656 1.310547,0.4257813 -0.439453,1.1503906 -1.261719,-0.5605469 -0.855469,1.6796875 1.195313,0.6894532 -0.671875,1.0351562 -1.117188,-0.8105468 -1.1875,1.4648437 1.025391,0.923828 -0.871094,0.871094 -0.923828,-1.025391 -1.4648437,1.1875 0.8105468,1.117188 -1.0351562,0.671875 -0.6894532,-1.195313 -1.6796875,0.855469 0.5605469,1.261719 -1.1503906,0.439453 -0.4257813,-1.310547 -1.8222656,0.488281 0.2871094,1.34961 -1.21875,0.191406 -0.1445313,-1.371094 -1.88281245,0.09961 v 1.376953 l -1.23242185,-0.0625 0.1445312,-1.373047 -1.8632812,-0.294922 -0.2871094,1.349609 -1.1894531,-0.318359 0.4257812,-1.3125 -1.7617187,-0.675781 -0.5605469,1.259765 -1.0976562,-0.558593 0.6894531,-1.195313 -1.5820313,-1.027344 -0.8125,1.115235 -0.9570311,-0.775391 0.923828,-1.025391 -1.333984,-1.333984 -1.025391,0.923828 -0.775391,-0.9570311 1.115235,-0.8125 -1.027344,-1.5820313 -1.195313,0.6894531 -0.558593,-1.0976562 1.259765,-0.5605469 -0.675781,-1.7617187 -1.3125,0.4257812 -0.318359,-1.1894531 1.349609,-0.2871094 -0.294922,-1.8632812 -1.373047,0.1445312 -0.0625,-1.23242185 h 1.376953 l 0.09961,-1.88281245 -1.371094,-0.1445313 0.191406,-1.21875 1.34961,0.2871094 0.488281,-1.8222656 -1.310547,-0.4257813 0.439453,-1.1503906 1.261719,0.5605469 0.855469,-1.6796875 -1.195313,-0.6894532 0.671875,-1.0351562 1.117188,0.8105468 1.1875,-1.4648437 -1.025391,-0.923828 0.871094,-0.871094 0.923828,1.025391 1.4648437,-1.1875 -0.8105468,-1.117188 1.0351562,-0.671875 0.6894532,1.195313 1.6796875,-0.855469 -0.5605469,-1.261719 1.1503906,-0.439453 0.4257813,1.310547 1.8222656,-0.488281 -0.2871094,-1.34961 1.21875,-0.191406 0.1445313,1.371094 1.88281245,-0.09961 v -1.376953 l 1.23242185,0.0625 -0.1445312,1.373047 1.8632812,0.294922 0.2871094,-1.349609 1.1894531,0.318359 -0.4257812,1.3125 1.7617187,0.675781 0.5605469,-1.259765 1.0976562,0.558593 -0.6894531,1.195313 1.5820313,1.027344 0.8125,-1.115235 0.9570311,0.775391 -0.923828,1.025391 1.333984,1.333984 1.025391,-0.923828 0.775391,0.9570311 -1.115235,0.8125 1.027344,1.5820313 1.195313,-0.6894531 0.558593,1.0976562 -1.259765,0.5605469 0.675781,1.7617187 1.3125,-0.4257812 0.318359,1.1894531 -1.349609,0.2871094 0.294922,1.8632812 1.582031,-0.1660156 -0.04102,-0.3964844 -1.205078,0.125 -0.175781,-1.1132812 1.390625,-0.2949219 -0.537109,-2.0058594 -1.351563,0.4394532 -0.404297,-1.0527344 1.296875,-0.578125 L 13.765625,-8.1777344 12.535156,-7.46875 11.921875,-8.4140625 13.070313,-9.25 11.763672,-10.861328 10.708984,-9.9101563 9.9101563,-10.708984 10.861328,-11.763672 9.25,-13.070313 8.4140625,-11.921875 7.46875,-12.535156 l 0.7089844,-1.230469 -1.8476563,-0.941406 -0.578125,1.296875 -1.0527344,-0.404297 0.4394532,-1.351563 -2.0058594,-0.537109 -0.2949219,1.390625 -1.1132812,-0.175781 0.1484375,-1.414063 z"
         id="path1" />
    </g>
  </g>
</svg>
